<svg width="84" height="101" viewBox="0 0 84 101" fill="none" xmlns="http://www.w3.org/2000/svg">
<path d="M1.58096 89.8564H50.7665C50.0638 87.9107 49.5368 85.7881 49.5368 83.6655C49.5368 74.1138 57.266 66.331 66.7518 66.331C68.684 66.331 70.4407 66.6848 72.1973 67.2154V25.4711L48.6585 1.59194H1.58096V89.8564ZM51.9961 91.6252H0.878313C0.351325 91.6252 0 91.2714 0 90.7408V0.884413C0 0.353765 0.351325 0 0.878313 0H49.0098C49.1855 0 49.3612 0 49.5368 0.176883L73.6026 24.5867C73.7783 24.7636 73.9539 24.9405 73.9539 25.1173V68.4536C73.9539 68.8074 73.7783 68.9842 73.6026 69.1611C73.2513 69.338 73.0756 69.338 72.7243 69.1611C70.9677 68.4536 68.8597 67.9229 66.7518 67.9229C58.1443 67.9229 51.2935 74.9982 51.2935 83.6655C51.2935 85.965 51.8204 88.0876 52.6988 90.2102C52.8744 90.387 52.8744 90.5639 52.8744 90.7408C52.8744 91.2714 52.5231 91.6252 51.9961 91.6252Z" fill="#CF9E41"/>
<path d="M50.4138 24.9405H71.669L50.4138 3.53767V24.9405ZM73.777 26.5324H49.5355C49.1842 26.5324 48.8329 26.1786 48.8329 25.8249V1.41508C48.8329 1.06131 49.0085 0.884427 49.1842 0.707545C49.5355 0.530662 49.8869 0.707545 50.2382 0.884427L74.1283 25.1174C74.4796 25.2942 74.4796 25.4711 74.4796 25.8249C74.4796 26.1786 74.1283 26.5324 73.777 26.5324Z" fill="#CF9E41"/>
<path d="M37.2391 12.3819H11.9437C11.5924 12.3819 11.0654 12.0281 11.0654 11.4974C11.0654 10.9668 11.5924 10.613 11.9437 10.613H37.2391C37.5905 10.613 37.9418 10.9668 37.9418 11.4974C37.9418 12.0281 37.5905 12.3819 37.2391 12.3819Z" fill="#CF9E41"/>
<path d="M44.2656 22.9945H11.9437C11.5924 22.9945 11.0654 22.6408 11.0654 22.287C11.0654 21.7564 11.5924 21.4026 11.9437 21.4026H44.2656C44.7926 21.4026 45.144 21.7564 45.144 22.287C45.144 22.6408 44.7926 22.9945 44.2656 22.9945Z" fill="#CF9E41"/>
<path d="M59.197 56.6024H11.9437C11.5924 56.6024 11.0654 56.2487 11.0654 55.8949C11.0654 55.3643 11.5924 55.0105 11.9437 55.0105H59.197C59.7239 55.0105 60.0753 55.3643 60.0753 55.8949C60.0753 56.2487 59.7239 56.6024 59.197 56.6024Z" fill="#CF9E41"/>
<path d="M59.197 46.3432H11.9437C11.5924 46.3432 11.0654 45.9894 11.0654 45.4588C11.0654 45.105 11.5924 44.7512 11.9437 44.7512H59.197C59.7239 44.7512 60.0753 45.105 60.0753 45.4588C60.0753 45.9894 59.7239 46.3432 59.197 46.3432Z" fill="#CF9E41"/>
<path d="M59.197 35.5534H11.9437C11.5924 35.5534 11.0654 35.1996 11.0654 34.8458C11.0654 34.3152 11.5924 33.9614 11.9437 33.9614H59.197C59.7239 33.9614 60.0753 34.3152 60.0753 34.8458C60.0753 35.1996 59.7239 35.5534 59.197 35.5534Z" fill="#CF9E41"/>
<path d="M66.7504 67.923C58.143 67.923 51.2921 74.9983 51.2921 83.6656C51.2921 92.3328 58.143 99.2312 66.7504 99.2312C75.3579 99.2312 82.3844 92.3328 82.3844 83.6656C82.3844 74.9983 75.3579 67.923 66.7504 67.923ZM66.7504 101C57.2647 101 49.5355 93.2172 49.5355 83.6656C49.5355 74.1139 57.2647 66.3311 66.7504 66.3311C76.2362 66.3311 83.9654 74.1139 83.9654 83.6656C83.9654 93.2172 76.2362 101 66.7504 101Z" fill="#CF9E41"/>
<path d="M65.1695 86.4956C65.1695 86.4956 64.9938 86.4956 64.8182 86.3187L59.5483 83.8424C59.197 83.6655 59.0213 83.1349 59.197 82.7811C59.3726 82.2504 59.8996 82.0736 60.2509 82.4273L65.1695 84.7268L73.25 81.0123C73.777 80.8354 74.3039 81.0123 74.4796 81.366C74.6553 81.7198 74.4796 82.2504 73.9526 82.4273L65.5208 86.3187C65.5208 86.4956 65.3452 86.4956 65.1695 86.4956Z" fill="#CF9E41"/>
</svg>
