<svg width="81" height="101" viewBox="0 0 81 101" fill="none" xmlns="http://www.w3.org/2000/svg">
<path d="M62.2635 80.506H72.6407C73.2313 80.506 73.6532 81.0248 73.6532 81.6301V92.2663C73.6532 92.8716 73.2313 93.3904 72.6407 93.3904H72.5564H62.2635C61.6729 93.3904 61.1667 92.8716 61.1667 92.2663V81.6301C61.1667 81.0248 61.6729 80.506 62.2635 80.506ZM1.09678 0H79.9808C80.5713 0 80.9932 0.518836 80.9932 1.12414V99.9623C80.9932 100.568 80.5713 101 79.9808 101H79.8964H1.09678C0.506207 101 0 100.568 0 99.9623V99.8759V1.12414C0 0.518836 0.506207 0 1.09678 0ZM78.884 2.16181H2.1092V98.8382H78.884V2.16181ZM8.52116 8.12842H72.5564C73.1469 8.12842 73.5688 8.64726 73.5688 9.25257V38.9127C73.5688 39.518 73.1469 39.9503 72.5564 39.9503H72.472H8.52116C7.93058 39.9503 7.42437 39.518 7.42437 38.9127V38.8262V9.25257C7.42437 8.64726 7.93058 8.12842 8.52116 8.12842ZM71.4596 10.2902H9.53357V37.7885H71.4596V10.2902ZM8.35242 45.744H18.7297C19.3202 45.744 19.7421 46.2628 19.7421 46.8681V57.5043C19.7421 58.1096 19.3202 58.6284 18.7297 58.6284H18.6453H8.35242C7.76184 58.6284 7.25564 58.1096 7.25564 57.5043V46.8681C7.25564 46.2628 7.76184 45.744 8.35242 45.744ZM17.6329 47.9923H9.36483V56.3801H17.6329V47.9923ZM7.93058 62.8656H18.3078C18.8984 62.8656 19.4046 63.3844 19.4046 63.9897V92.7851C19.4046 93.3904 18.8984 93.8228 18.3078 93.8228H7.93058C7.34001 93.8228 6.8338 93.3904 6.8338 92.7851V92.6986V63.9897C6.8338 63.3844 7.34001 62.8656 7.93058 62.8656ZM17.211 65.0274H9.02736V91.661H17.211V65.0274ZM26.4071 45.6575H36.7844C37.375 45.6575 37.8812 46.0899 37.8812 46.6952V46.7817V57.3313C37.8812 57.9366 37.375 58.4555 36.7844 58.4555H26.4071C25.8166 58.4555 25.3104 57.9366 25.3104 57.3313V46.6952C25.3104 46.0899 25.8166 45.6575 26.4071 45.6575ZM35.772 47.8193H27.5039V56.2937H35.772V47.8193ZM26.2384 63.2115H36.6157C37.2062 63.2115 37.7124 63.7303 37.7124 64.3356V74.9717C37.7124 75.577 37.2062 76.0959 36.6157 76.0959H26.2384C25.6478 76.0959 25.1416 75.577 25.1416 74.9717V64.3356C25.1416 63.7303 25.6478 63.2115 26.2384 63.2115ZM35.5189 65.4598H27.3352V73.8476H35.5189V65.4598ZM26.0697 80.8519H36.4469C37.0375 80.8519 37.4593 81.3707 37.4593 81.976V92.6122C37.4593 93.2175 37.0375 93.6498 36.4469 93.6498H36.3626H26.0697C25.4791 93.6498 24.9729 93.2175 24.9729 92.6122V92.5257V81.976C24.9729 81.3707 25.4791 80.8519 26.0697 80.8519ZM35.3501 83.0137H27.0821V91.488H35.3501V83.0137ZM44.5462 45.4846H54.9235C55.5141 45.4846 55.9359 45.917 55.9359 46.5223V46.6087V57.1584C55.9359 57.7637 55.5141 58.2825 54.9235 58.2825H54.8391H44.5462C43.9557 58.2825 43.4495 57.7637 43.4495 57.1584V46.5223C43.4495 45.917 43.9557 45.4846 44.5462 45.4846ZM53.8267 47.6464H45.5587V56.1207H53.8267V47.6464ZM44.2931 63.0385H44.3775H54.6704C55.261 63.0385 55.7672 63.5574 55.7672 64.1627V74.7988C55.7672 75.4041 55.261 75.9229 54.6704 75.9229H44.2931C43.7026 75.9229 43.2807 75.4041 43.2807 74.7988V64.1627C43.2807 63.5574 43.7026 63.0385 44.2931 63.0385ZM53.658 65.2868H45.3899V73.6747H53.658V65.2868ZM44.1244 80.6789H54.5016C55.0922 80.6789 55.5984 81.1978 55.5984 81.8031V92.4392C55.5984 93.0445 55.0922 93.5634 54.5016 93.5634H44.1244C43.5338 93.5634 43.0276 93.0445 43.0276 92.4392V81.8031C43.0276 81.1978 43.5338 80.6789 44.1244 80.6789ZM53.4049 82.8408H45.2212V91.3151H53.4049V82.8408ZM62.601 45.3116H72.9782C73.5688 45.3116 74.075 45.744 74.075 46.3493V46.4358V57.0719C74.075 57.6772 73.5688 58.1096 72.9782 58.1096H62.601C62.0104 58.1096 61.5042 57.6772 61.5042 57.0719V56.9854V46.3493C61.5042 45.744 62.0104 45.3116 62.601 45.3116ZM71.9658 47.4735H63.6978V55.9478H71.9658V47.4735ZM62.4322 62.9521H72.8095C73.4001 62.9521 73.9063 63.3844 73.9063 63.9897V64.0762V74.6259C73.9063 75.2312 73.4001 75.75 72.8095 75.75H62.4322C61.8417 75.75 61.3354 75.2312 61.3354 74.6259V63.9897C61.3354 63.3844 61.8417 62.9521 62.4322 62.9521ZM71.7127 65.1139H63.529V73.5882H71.7127V65.1139ZM71.544 82.7543H63.2759V91.1421H71.544V82.7543Z" fill="#CF9E41"/>
</svg>
