<svg width="88" height="93" viewBox="0 0 88 93" fill="none" xmlns="http://www.w3.org/2000/svg">
<path d="M1.93371 61.5241H9.48439V50.1035C9.48439 49.643 9.85271 49.1825 10.4052 49.1825C10.9577 49.1825 11.326 49.643 11.326 50.1035V60.7873L38.7663 49.4588C38.9504 49.3667 39.2267 49.3667 39.3188 49.4588L50.6448 54.9849C50.0002 49.1825 47.3298 43.7485 43.002 39.696H9.76063C4.78823 44.3932 1.93371 50.8403 1.93371 57.5638V61.5241ZM12.0627 63.4583H0.920814C0.460407 63.4583 0 62.9978 0 62.5373V57.5638C0 50.1956 3.13077 43.1037 8.74773 38.0381C8.83982 37.8539 9.11606 37.8539 9.3923 37.8539H38.49C39.8713 35.4593 41.6208 33.2488 43.7387 31.3147C43.9228 31.1305 44.107 31.0384 44.3832 31.0384H78.3613C78.5454 31.0384 78.8217 31.1305 79.0059 31.3147C84.5307 36.3803 87.6615 43.4721 87.6615 50.8403V55.8138C87.6615 56.2743 87.2932 56.7348 86.7407 56.7348H54.236L84.7149 71.5633C85.0832 71.7475 85.1753 72.208 85.0832 72.4843C84.9911 72.6685 84.807 72.7606 84.6228 72.8527L81.3079 74.2342L84.8991 75.9842C85.1753 76.0763 85.3595 76.5368 85.1753 76.8131C85.0832 76.9973 84.9911 77.0894 84.807 77.1815L81.8604 78.3788L84.8991 79.8524C85.2674 80.0366 85.3595 80.4972 85.1753 80.7735C85.0832 80.9577 84.9911 81.0498 84.807 81.1419L56.1697 92.9309C55.9855 93.023 55.8013 93.023 55.6172 92.9309L39.7792 85.1944C39.6871 85.1944 39.6871 85.1944 39.595 85.1023L25.0461 78.0104C24.9541 78.0104 24.862 77.9183 24.862 77.9183L10.221 70.7343C9.94479 70.6422 9.76063 70.1817 9.94479 69.9054C10.0369 69.7212 10.221 69.6291 10.3131 69.537L13.3518 68.3397L14.5489 68.8923L10.221 66.774C9.94479 66.6819 9.76063 66.2213 9.94479 65.945C10.0369 65.7608 10.129 65.6687 10.3131 65.5766L13.628 64.1951L12.0627 63.4583ZM15.2855 65.024L12.1547 66.3134L25.4145 72.7606L28.4532 71.4712L24.862 69.7212C24.7699 69.7212 24.7699 69.6291 24.6778 69.6291L15.2855 65.024ZM29.8344 72.1159L30.0185 72.3001L26.9799 73.4974L39.9633 79.8524L43.002 78.563L39.6871 76.9052C39.595 76.9052 39.5029 76.9052 39.4108 76.8131L29.8344 72.1159ZM44.6595 79.2998L41.5287 80.5893L55.9855 87.589L82.9654 76.4447L79.6504 74.8789L56.0776 84.6417C55.8934 84.7338 55.7093 84.7338 55.5251 84.6417L44.6595 79.2998ZM68.4165 65.1161L41.4366 76.2605L55.8013 83.2602L82.7812 72.1159L68.4165 65.1161ZM25.2303 68.4318L52.3022 57.2874L39.0425 50.8403L12.0627 61.8925L25.2303 68.4318ZM66.759 64.3793L53.7755 58.0243L26.8878 69.1686L39.7792 75.5236L66.759 64.3793ZM14.9172 69.0765L12.1547 70.1817L25.4145 76.721L28.0848 75.6157L29.7423 76.3526L26.9799 77.4578L39.9633 83.8128L42.7258 82.6155L39.7792 81.234C39.6871 81.234 39.595 81.234 39.595 81.1419L25.0461 74.05C24.9541 74.05 24.862 73.9579 24.7699 73.9579L14.9172 69.0765ZM44.2912 83.4444L41.5287 84.5496L55.9855 91.5494L82.9654 80.4051L80.2029 79.1156L56.1697 88.9705C55.9855 89.0626 55.8013 89.0626 55.6172 88.9705L44.2912 83.4444ZM26.3353 8.65759C20.0737 8.65759 15.0093 13.7232 15.0093 20.0782C15.0093 26.3412 20.0737 31.4068 26.3353 31.4068C32.5968 31.4068 37.7534 26.3412 37.7534 20.0782C37.7534 13.7232 32.5968 8.65759 26.3353 8.65759ZM26.3353 33.3409C19.0609 33.3409 13.0756 27.3543 13.0756 20.0782C13.0756 12.7101 19.0609 6.72345 26.3353 6.72345C33.7018 6.72345 39.6871 12.7101 39.6871 20.0782C39.6871 27.3543 33.7018 33.3409 26.3353 33.3409ZM52.5785 54.8007H76.3355V43.38C76.3355 42.9195 76.7959 42.459 77.2563 42.459C77.8088 42.459 78.2692 42.9195 78.2692 43.38V54.8007H85.8199V50.8403C85.8199 44.1169 82.9654 37.6697 77.993 32.9725H44.7516C43.1862 34.4462 41.805 36.0119 40.7 37.8539H43.3703C43.5545 37.8539 43.8308 37.8539 44.0149 38.0381C48.7111 42.3669 51.7498 48.2615 52.4864 54.5244L52.5785 54.8007ZM61.3262 1.93414C55.0647 1.93414 50.0002 6.99975 50.0002 13.3548C50.0002 19.6177 55.0647 24.6833 61.3262 24.6833C67.5878 24.6833 72.7443 19.6177 72.7443 13.3548C72.7443 6.99975 67.5878 1.93414 61.3262 1.93414ZM61.3262 26.6175C54.0518 26.6175 48.0665 20.6308 48.0665 13.3548C48.0665 5.98663 54.0518 0 61.3262 0C68.6927 0 74.678 5.98663 74.678 13.3548C74.678 20.6308 68.6927 26.6175 61.3262 26.6175Z" fill="#CF9E41"/>
</svg>
