<svg width="107" height="93" viewBox="0 0 107 93" fill="none" xmlns="http://www.w3.org/2000/svg">
<path d="M105.878 78.4492H91.0729C90.4747 78.4492 90.0261 77.9913 90.0261 77.3808C90.0261 76.923 90.4747 76.4651 91.0729 76.4651H104.981V2.13675H17.0481V15.4151C17.0481 16.0256 16.5995 16.4835 16.0013 16.4835C15.4031 16.4835 14.9545 16.0256 14.9545 15.4151V1.06837C14.9545 0.457875 15.4031 0 16.0013 0H105.878C106.476 0 106.925 0.457875 106.925 1.06837V77.3808C106.925 77.9913 106.476 78.4492 105.878 78.4492Z" fill="#CF9E41"/>
<path d="M2.09363 90.8115H90.0261V16.4834H2.09363V90.8115ZM91.0729 92.9482H1.04682C0.448635 92.9482 0 92.4904 0 91.8799V15.4151C0 14.9572 0.448635 14.3467 1.04682 14.3467H91.0729C91.6711 14.3467 92.1197 14.9572 92.1197 15.4151V91.8799C92.1197 92.4904 91.6711 92.9482 91.0729 92.9482Z" fill="#CF9E41"/>
<path d="M91.0729 66.5442C90.7739 66.5442 90.6243 66.3916 90.4748 66.3916L69.0898 50.2136L52.6399 63.9496C52.1912 64.2549 51.5931 64.2549 51.1444 63.797C50.8453 63.3391 50.8453 62.7286 51.294 62.2708L68.4916 47.9242C68.7907 47.619 69.3889 47.619 69.688 47.9242L91.6711 64.5601C92.1198 65.018 92.2693 65.6285 91.8207 66.0863C91.6711 66.3916 91.372 66.5442 91.0729 66.5442Z" fill="#CF9E41"/>
<path d="M1.04684 78.7543C0.747748 78.7543 0.448658 78.6016 0.299113 78.2964C-0.149522 77.8385 2.281e-05 77.228 0.448658 76.7701L33.9467 48.3819C34.3954 48.0766 34.9936 48.0766 35.2926 48.3819L64.4539 71.7335C64.9026 72.0388 64.9026 72.8019 64.6035 73.2598C64.1548 73.7176 63.5567 73.7176 63.108 73.4124L34.6945 50.5186L1.64502 78.449C1.49547 78.6016 1.34593 78.7543 1.04684 78.7543Z" fill="#CF9E41"/>
<path d="M55.7803 30.9827C52.6398 30.9827 50.0976 33.5773 50.0976 36.7824C50.0976 39.9875 52.6398 42.5821 55.7803 42.5821C58.9207 42.5821 61.463 39.9875 61.463 36.7824C61.463 33.5773 58.9207 30.9827 55.7803 30.9827ZM55.7803 44.7189C51.4435 44.7189 48.0039 41.2085 48.0039 36.7824C48.0039 32.3563 51.4435 28.8459 55.7803 28.8459C60.1171 28.8459 63.5566 32.3563 63.5566 36.7824C63.5566 41.2085 60.1171 44.7189 55.7803 44.7189Z" fill="#CF9E41"/>
</svg>
