<svg width="133" height="97" viewBox="0 0 133 97" fill="none" xmlns="http://www.w3.org/2000/svg">
<path d="M1.91939 82.0357H51.0277V78.0007C51.0277 71.1174 48.1721 64.5189 43.2097 59.8192H9.78422C4.77507 64.5189 1.91939 71.1174 1.91939 78.0007V82.0357ZM52.0109 83.9821H0.983103C0.42133 83.9821 0 83.5548 0 82.9852V78.0007C0 70.4528 3.18338 63.1897 8.7543 58.1103C8.94156 57.9204 9.17563 57.8254 9.4097 57.8254H43.5843C43.8183 57.8254 44.0524 57.9204 44.1928 58.1103C49.7638 63.1897 52.9471 70.4528 52.9471 78.0007V82.9852C52.9471 83.5548 52.5258 83.9821 52.0109 83.9821Z" fill="#CF9E41"/>
<path d="M26.497 28.1074C20.1771 28.1074 15.0275 33.3293 15.0275 39.7381C15.0275 46.1469 20.1771 51.3213 26.497 51.3213C32.7702 51.3213 37.9198 46.1469 37.9198 39.7381C37.9198 33.3293 32.7702 28.1074 26.497 28.1074ZM26.497 53.2677C19.1003 53.2677 13.1081 47.1912 13.1081 39.7381C13.1081 32.2375 19.1003 26.161 26.497 26.161C33.8469 26.161 39.8392 32.2375 39.8392 39.7381C39.8392 47.1912 33.8469 53.2677 26.497 53.2677Z" fill="#CF9E41"/>
<path d="M42.5076 83.9821H10.4396C9.92469 83.9821 9.50336 83.5548 9.50336 82.9852V70.4052C9.50336 69.8831 9.92469 69.4558 10.4396 69.4558C11.0014 69.4558 11.4228 69.8831 11.4228 70.4052V82.0357H41.5245V70.4052C41.5245 69.8831 41.9926 69.4558 42.5076 69.4558C43.0225 69.4558 43.4438 69.8831 43.4438 70.4052V82.9852C43.4438 83.5548 43.0225 83.9821 42.5076 83.9821Z" fill="#CF9E41"/>
<path fill-rule="evenodd" clip-rule="evenodd" d="M84.3129 50.0398C83.7511 49.8025 83.5639 49.9449 82.3467 49.3752C80.6146 48.5682 78.9761 47.144 77.993 45.4825C77.2439 44.2482 76.7758 44.9128 73.8265 44.1533C72.3284 43.821 70.9708 43.2513 69.8472 42.6341C68.0215 41.6847 67.0384 40.4504 66.1957 40.9726C65.7744 41.2575 65.4467 42.017 66.4298 42.7291C71.7198 46.5743 75.9331 46.337 76.3545 46.5743C76.6822 46.8592 76.9162 47.3339 77.1971 47.6662C79.3974 50.4671 82.6744 52.1761 86.5132 52.2235C87.5431 52.2235 89.5561 52.4134 89.9775 51.7963C90.352 51.2741 90.1179 50.7044 89.7434 50.4671C89.3221 50.1822 88.573 50.2772 88.0581 50.1348C86.2791 49.66 84.5938 47.951 84.6874 45.6249C85.5301 45.0078 89.6966 44.2957 93.9099 39.0737C102.29 28.7248 98.3573 13.0115 86.6068 7.69459C79.491 4.419 71.6262 5.46339 65.5403 10.4005C58.8926 15.7649 56.3647 25.3068 59.4076 33.4245C59.6885 34.1366 60.2971 35.7032 60.6716 36.1779C61.2334 36.89 62.9187 36.4628 62.076 34.8012C60.5312 31.6681 59.8289 28.5824 60.063 24.8321C60.578 16.5244 66.8511 9.59348 74.9968 8.02689C83.5171 6.46031 92.0841 11.3974 95.0802 19.0879C96.7656 23.4079 97.0465 28.0127 95.4079 32.5226C94.0035 36.4628 91.4755 39.4535 88.5262 41.4948C85.7173 43.4412 83.8916 43.6311 83.2362 44.0583C82.4871 44.4856 82.768 46.4794 83.0021 47.4288C83.1426 47.951 83.3766 48.4258 83.5639 48.853C83.798 49.1853 84.2193 49.755 84.3129 50.0398Z" fill="#CF9E41"/>
<path fill-rule="evenodd" clip-rule="evenodd" d="M44.9887 6.65013C44.1929 6.65013 44.0992 6.41277 44.0524 5.60575C44.1929 5.5108 44.5674 5.32091 44.6142 5.13102L44.2397 4.84619L43.8183 5.13102C43.6311 5.32091 43.4906 5.41586 43.3502 5.60575C42.4607 6.41277 41.6181 7.40969 40.9158 8.4066C39.9796 9.64088 39.0433 11.3024 38.4347 12.9165C35.579 20.7019 37.1239 28.155 42.3671 34.2314C43.912 36.0354 46.1122 37.6494 48.3593 38.7413L50.5128 39.6433C50.7001 39.7382 50.6532 39.6433 50.7469 39.8806C50.7001 42.4916 48.7807 44.2955 46.2995 44.438C44.9887 44.5329 44.6142 46.3843 46.674 46.3843C48.1721 46.3843 49.5765 46.4318 51.0278 46.1944C53.7898 45.7197 56.6455 43.9158 58.0499 42.0169C59.4076 40.2129 58.5649 40.925 60.9992 40.4503C63.3868 39.9756 65.3998 39.1685 67.4596 37.9343C67.881 37.6969 68.4896 37.4121 68.5364 36.7475C68.5364 36.1303 68.0214 35.6556 67.366 35.798C67.0851 35.8455 66.2893 36.4152 65.9148 36.605C63.7613 37.7444 61.7483 38.5039 59.1735 38.7888C57.3009 38.9787 58.1436 38.8837 56.6455 40.7826C54.9134 42.9663 53.3217 43.4885 51.0746 44.2006C51.1682 43.7259 51.8236 43.3461 52.3386 41.8745C52.5258 41.1624 52.8535 39.1685 52.479 38.5039C52.2449 38.0767 50.6064 37.6494 49.9978 37.4121C45.6909 35.5132 42.8352 32.5224 40.6818 28.3449C38.9964 24.9744 38.4347 20.0847 39.4646 15.9072C40.4945 11.8246 42.6948 8.69143 44.9887 6.65013Z" fill="#CF9E41"/>
<path fill-rule="evenodd" clip-rule="evenodd" d="M52.8067 24.2147C53.2749 24.4996 53.9771 25.7813 54.8666 25.0217C55.8965 24.1672 54.5389 23.2653 54.2112 22.838C54.3984 22.1734 55.5688 20.8917 55.1475 18.4232C54.3048 13.676 48.5466 12.062 45.4101 15.3375C42.1331 18.708 44.0056 24.3571 48.4998 25.1642C49.2957 25.3066 50.0915 25.2591 50.8873 25.0692C51.8236 24.8319 52.1045 24.4996 52.8067 24.2147ZM51.3555 22.838C51.0746 21.9836 48.7339 20.8917 49.7638 19.7524C50.7469 18.6131 52.1513 21.0341 52.8067 21.3664C55.0538 17.5212 49.9511 13.4861 46.7677 16.6193C44.8015 18.6605 45.5037 22.3159 48.4062 23.1703C49.717 23.5501 50.4192 23.1703 51.3555 22.838Z" fill="#CF9E41"/>
<path fill-rule="evenodd" clip-rule="evenodd" d="M82.9085 29.1045L87.0281 29.152C87.2154 29.6267 87.8708 31.668 88.2921 31.9054C88.6198 32.0953 89.088 32.0953 89.3688 31.8579C90.0242 31.2882 89.6029 30.5287 89.322 29.8641L86.9813 23.8826C86.7004 23.218 86.4664 22.6008 86.1855 21.9362C85.9514 21.2716 85.811 20.4171 84.9683 20.4171C84.1725 20.4171 83.9852 21.2716 83.7512 21.8413C83.4703 22.5059 83.2362 23.123 82.9553 23.7876L80.5678 29.6742C80.3337 30.2439 79.8188 31.1933 80.4274 31.7155C81.1764 32.3801 81.785 31.7155 82.0659 31.0984C82.2063 30.7186 82.2999 30.4337 82.4404 30.1014C82.4872 29.959 82.5808 29.7691 82.6276 29.5792L82.9085 29.1045ZM83.6575 27.1582L86.2323 27.2056L84.9683 24.025C84.7343 24.3098 83.798 26.6834 83.6575 27.1582Z" fill="#CF9E41"/>
<path fill-rule="evenodd" clip-rule="evenodd" d="M44.661 4.51391C44.7546 4.84621 44.661 4.60886 44.9419 4.94115C45.0355 5.08357 45.0823 5.13104 45.176 5.27345C45.0823 4.65633 45.2696 4.41897 46.0186 4.3715L45.9718 5.32092C46.3463 5.22598 45.7846 5.41587 46.0654 5.27345L46.2995 5.17851C46.3463 5.17851 46.3931 5.17851 46.3931 5.13104C46.2995 5.51081 46.3931 5.3684 46.2059 5.55828C46.3931 5.51081 46.2059 5.60575 46.44 5.46334C46.5804 5.32092 46.44 5.46334 46.5336 5.3684C46.6272 5.27345 46.5804 5.27345 46.6272 5.22598C46.4868 4.98863 45.5505 4.0392 46.44 3.61196C46.7677 3.46954 46.8145 3.51702 47.1422 3.61196C47.0954 2.14035 48.7339 2.56759 48.4062 3.56449C48.3594 3.84931 48.1721 3.99173 47.938 4.0392C47.6571 4.08667 47.5167 3.99173 47.5167 3.99173C47.0485 3.84931 47.3762 3.89679 47.3762 3.84931C47.4231 4.22908 47.5635 4.27656 47.3294 4.60886C47.0017 4.98863 47.0017 4.56138 46.9081 5.08357C47.5167 4.79874 48.1721 4.22908 49.4361 3.65943C50.3724 3.23219 51.3555 2.85242 52.3854 2.56759C54.6793 1.95046 57.2541 1.76058 59.7353 2.09288C65.1657 2.89989 67.6937 5.51081 68.3023 5.74817C69.145 6.08046 70.4558 4.94115 68.8641 3.80184C62.3569 -0.755399 54.0707 -1.37253 46.9549 2.80495L44.661 4.51391Z" fill="#CF9E41"/>
<path fill-rule="evenodd" clip-rule="evenodd" d="M73.8265 10.2105C72.2816 10.7326 73.6392 12.0619 74.5287 14.8152C76.0736 19.42 75.5118 24.6893 73.3583 28.9143C73.1242 29.3415 72.937 29.6738 73.171 30.1486C73.3115 30.5283 73.7796 30.8132 74.2946 30.6233C75.0905 30.3859 76.214 27.1578 76.4949 26.1135C77.5717 22.3157 77.5717 18.0908 76.4013 14.293C76.1204 13.486 75.8395 12.6315 75.465 11.872C75.1373 11.2074 74.7159 9.92563 73.8265 10.2105Z" fill="#CF9E41"/>
<path fill-rule="evenodd" clip-rule="evenodd" d="M44.661 4.51411C44.427 4.60904 44.6142 4.46664 44.427 4.60904C44.1929 4.79891 44.3801 4.65651 44.2397 4.84638L44.6142 5.13118C44.5674 5.32106 44.1929 5.51093 44.0524 5.60586C44.0992 6.41281 44.1929 6.65015 44.9887 6.65015C45.2696 6.41281 46.0655 5.8432 46.2059 5.55839C46.3932 5.36852 46.2996 5.51093 46.3932 5.13118C46.3932 5.17865 46.3464 5.17865 46.2996 5.17865L46.0655 5.27359C45.7846 5.41599 46.3464 5.22612 45.9719 5.32106L46.0187 4.3717C45.2696 4.41917 45.0824 4.65651 45.176 5.27359C45.0824 5.13118 45.0355 5.08372 44.9419 4.94131C44.661 4.60904 44.7547 4.84638 44.661 4.51411Z" fill="#CF9E41"/>
<path fill-rule="evenodd" clip-rule="evenodd" d="M71.3453 32.4274C70.8772 32.6647 70.5027 33.0444 70.7368 33.7089C70.8772 34.0885 71.4389 34.4682 72.0475 34.2309C73.171 33.7088 72.5624 31.8104 71.3453 32.4274Z" fill="#CF9E41"/>
<path fill-rule="evenodd" clip-rule="evenodd" d="M46.6272 5.22461C46.8145 5.17715 46.7677 5.22461 46.9081 5.08224C47.0018 4.5602 47.0018 4.98732 47.3295 4.60766C47.5635 4.27546 47.4231 4.228 47.3763 3.84834C47.3763 3.8958 47.0486 3.84834 47.5167 3.99071C47.5167 3.99071 47.6572 4.08563 47.9381 4.03817C48.1721 3.99071 48.3594 3.84834 48.4062 3.56359C48.7339 2.56698 47.0954 2.13986 47.1422 3.61105C46.8145 3.51613 46.7677 3.46868 46.44 3.61105C45.5505 4.03817 46.4868 4.98732 46.6272 5.22461Z" fill="#CF9E41"/>
<path d="M81.9254 95.0434H131.034V91.0556C131.034 84.1721 128.178 77.5733 123.216 72.826H89.7902C84.7811 77.5733 81.9254 84.1721 81.9254 91.0556V95.0434ZM132.017 96.9897H80.9891C80.4273 96.9897 80.006 96.5625 80.006 96.0403V91.0556C80.006 83.5074 83.1894 76.2441 88.7603 71.117C88.9476 70.9746 89.1816 70.8796 89.4157 70.8796H123.59C123.824 70.8796 124.058 70.9746 124.246 71.117C129.77 76.2441 133 83.5074 133 91.0556V96.0403C133 96.5625 132.532 96.9897 132.017 96.9897Z" fill="#CF9E41"/>
<path d="M106.503 41.1629C100.183 41.1629 95.0334 46.3847 95.0334 52.7933C95.0334 59.1545 100.183 64.3763 106.503 64.3763C112.823 64.3763 117.926 59.1545 117.926 52.7933C117.926 46.3847 112.823 41.1629 106.503 41.1629ZM106.503 66.3226C99.1063 66.3226 93.114 60.2463 93.114 52.7933C93.114 45.2929 99.1063 39.2166 106.503 39.2166C113.853 39.2166 119.892 45.2929 119.892 52.7933C119.892 60.2463 113.853 66.3226 106.503 66.3226Z" fill="#CF9E41"/>
<path d="M122.514 96.9893H90.4924C89.9306 96.9893 89.5093 96.562 89.5093 96.0398V83.4601C89.5093 82.8905 89.9306 82.4633 90.4924 82.4633C91.0073 82.4633 91.4287 82.8905 91.4287 83.4601V95.043H121.577V83.4601C121.577 82.8905 121.999 82.4633 122.514 82.4633C123.029 82.4633 123.497 82.8905 123.497 83.4601V96.0398C123.497 96.562 123.029 96.9893 122.514 96.9893Z" fill="#CF9E41"/>
</svg>
