<svg width="86" height="90" viewBox="0 0 86 90" fill="none" xmlns="http://www.w3.org/2000/svg">
<path d="M1.90239 61.2903H9.1949V50C9.1949 49.5161 9.6705 49.0323 10.1461 49.0323C10.7802 49.0323 11.0973 49.5161 11.0973 50V61.2903H40.5844V50C40.5844 49.5161 40.9015 49.0323 41.5356 49.0323C42.0112 49.0323 42.4868 49.5161 42.4868 50V61.2903H49.7793V57.4194C49.7793 50.6452 47.0842 44.1935 42.1697 39.6774H9.51197C4.59745 44.1935 1.90239 50.6452 1.90239 57.4194V61.2903ZM1.74386 81.2903H57.2303C57.7059 81.2903 58.1815 81.7742 58.1815 82.2581V87.5806L81.3273 75.3226L58.1815 63.2258V68.5484C58.1815 69.0323 57.7059 69.5161 57.2303 69.5161H1.74386V81.2903ZM56.2791 83.0645H0.951197C0.475598 83.0645 0 82.7419 0 82.2581V68.5484C0 68.0645 0.475598 67.5806 0.951197 67.5806H56.2791V61.7742C56.2791 61.6129 56.4377 61.4516 56.4377 61.2903C56.5962 60.8064 57.2303 60.6452 57.5474 60.9677L83.5468 74.5161C83.7053 74.6774 83.8639 74.8387 84.0224 75C84.1809 75.4839 84.0224 75.9677 83.5468 76.129L57.7059 89.8387C57.5474 90 57.3889 90 57.2303 90C56.7547 90 56.2791 89.5161 56.2791 89.0323V83.0645ZM25.8408 8.54839C19.6581 8.54839 14.7436 13.7097 14.7436 20C14.7436 26.2903 19.6581 31.2903 25.8408 31.2903C32.0236 31.2903 36.9381 26.2903 36.9381 20C36.9381 13.7097 32.0236 8.54839 25.8408 8.54839ZM25.8408 33.2258C18.7069 33.2258 12.8412 27.2581 12.8412 20C12.8412 12.7419 18.7069 6.77419 25.8408 6.77419C32.9748 6.77419 38.8405 12.7419 38.8405 20C38.8405 27.2581 32.9748 33.2258 25.8408 33.2258ZM51.5232 54.6774H74.8275V43.2258C74.8275 42.7419 75.3031 42.4194 75.7787 42.4194C76.2543 42.4194 76.7299 42.7419 76.7299 43.2258V54.6774H84.1809V50.6452C84.1809 44.0323 81.3273 37.5806 76.4128 32.9032H43.9136C42.3283 34.3548 41.06 35.9677 39.9503 37.7419H42.4868C42.8039 37.7419 42.9624 37.7419 43.1209 37.9032C47.7184 42.2581 50.7305 48.0645 51.5232 54.3548V54.6774ZM37.7308 37.7419C39.1576 35.3226 40.7429 33.0645 42.8039 31.2903C42.9624 31.129 43.2795 30.9677 43.438 30.9677H76.8884C77.0469 30.9677 77.2055 31.129 77.5225 31.2903C82.9127 36.2903 85.9248 43.3871 85.9248 50.6452V55.6452C85.9248 56.129 85.6077 56.6129 84.9736 56.6129H75.7787H51.6817C51.6817 56.9355 51.6817 57.0968 51.6817 57.4194V62.2581C51.6817 62.9032 51.2061 63.2258 50.7305 63.2258H41.5356H10.1461H0.951197C0.475598 63.2258 0 62.9032 0 62.2581V57.4194C0 50 3.17066 42.9032 8.56077 37.9032C8.7193 37.7419 8.87784 37.7419 9.1949 37.7419H37.7308ZM60.0839 1.93548C54.0597 1.93548 48.9866 6.93548 48.9866 13.2258C48.9866 19.5161 54.0597 24.6774 60.0839 24.6774C66.2667 24.6774 71.3398 19.5161 71.3398 13.2258C71.3398 6.93548 66.2667 1.93548 60.0839 1.93548ZM60.0839 26.6129C52.95 26.6129 47.0842 20.6452 47.0842 13.2258C47.0842 5.96774 52.95 0 60.0839 0C67.3764 0 73.2421 5.96774 73.2421 13.2258C73.2421 20.6452 67.3764 26.6129 60.0839 26.6129Z" fill="#CF9E41"/>
</svg>
