<svg width="85" height="85" viewBox="0 0 85 85" fill="none" xmlns="http://www.w3.org/2000/svg">
<path fill-rule="evenodd" clip-rule="evenodd" d="M38.1189 36.1697C36.092 38.6521 30.7303 44.009 29.7495 45.1848C28.8995 46.3607 27.9841 47.3406 26.9379 48.3859C21.7724 53.7427 23.5378 52.9588 20.2685 52.3055C16.9338 51.6522 13.7299 51.0643 10.3298 50.3457C6.92975 49.6271 4.05277 48.3859 1.50271 50.8683C-2.02814 54.3307 1.43732 55.5719 3.98738 57.3357L14.7107 64.2604C15.7569 64.9137 15.1684 64.587 15.5607 66.4162C15.7569 67.3308 16.1492 67.9187 16.6069 68.376C18.3069 70.1398 19.7454 69.0293 20.6608 70.1398L27.5918 80.8535C29.2264 83.2706 30.5995 86.9942 33.9342 83.6626C36.7458 80.7882 35.5689 78.8283 34.7188 74.7781C34.065 71.577 33.4111 68.3107 32.8227 65.1096C32.1034 61.386 31.5803 62.7579 36.615 58.2503C38.5112 56.6171 47.7307 47.602 48.8422 46.8834L65.3195 74.6474C65.9734 75.758 66.4965 76.9339 67.6734 77.3912C69.3081 77.9138 70.4197 77.3258 71.2697 76.4112C74.539 73.2102 75.7159 72.2956 74.6044 66.0242C74.0159 63.2152 73.5582 60.4714 73.0351 57.5317C71.9889 51.8482 71.1389 46.4261 70.2235 40.7426L68.1311 27.9385C68.1965 27.0892 69.8312 25.848 70.4197 25.2601L80.1622 15.069C81.8622 12.8479 87.1585 4.42068 84.02 1.08899C80.816 -2.30802 72.1197 3.17946 70.0927 4.81264L59.8925 14.4811C56.8847 17.4861 58.2578 17.2248 53.0923 16.3102L19.2877 10.4961C13.8607 9.58153 12.6837 9.71218 8.82595 13.4358C7.38746 14.9384 6.66821 16.8982 8.49902 18.466L13.2068 21.4058C17.4569 23.8229 21.5109 26.3706 25.6956 28.7877C26.8071 29.3757 37.4651 35.5164 38.1189 36.1697ZM10.7875 16.1142L37.5304 32.0541C44.0037 35.8431 44.1344 34.6672 36.4843 42.7024L27.7879 52.0442C27.1341 52.6321 25.4994 54.7879 24.3878 55.7025C23.4724 56.5518 22.9493 56.1598 21.7724 55.8332L9.74136 53.4161C8.23748 53.0894 4.96817 51.8482 3.79122 53.1548C3.92199 53.9387 11.376 58.3156 12.0953 58.8382C13.076 59.4915 18.1762 62.3659 18.5031 63.3458C18.8954 64.6524 17.98 65.4363 19.157 66.3509C20.0724 66.7428 21.2493 66.1549 22.0993 66.7428C22.7532 67.2001 30.7957 80.5269 31.7765 81.3108C33.215 80.0696 32.1688 77.8484 31.7765 75.9539L29.3572 63.8684C28.6379 60.6674 28.7033 61.2553 30.7957 59.2955C31.9072 58.2503 33.3457 56.6824 34.4573 55.8985L47.4691 43.813C49.9538 41.3959 50.4769 43.1597 52.8308 47.2753C54.5962 50.2804 56.427 53.4161 58.1925 56.3558C60.0233 59.2955 61.6579 62.3659 63.4887 65.3056C64.4041 66.7428 65.1888 68.572 66.1042 69.8785C66.6926 70.7278 67.0196 71.3157 67.4773 72.0996L68.9158 74.3208C72.7736 71.1851 72.0543 69.6825 71.3351 65.6976C69.0465 53.4814 67.2811 41.1999 65.1234 29.1797C64.5349 25.9133 64.9926 26.4359 66.5619 24.7374C69.3735 21.6017 72.9697 18.4007 75.4544 15.461C76.4352 14.2851 77.5467 13.5012 78.3968 12.1293C79.7045 10.1695 82.0584 6.24984 81.7315 3.31012C77.9391 2.46087 72.1851 7.03377 69.7004 9.45088L66.4965 12.5213C64.3388 14.8077 62.4426 16.3756 60.2848 18.5314C58.7809 19.9686 58.9117 20.4912 56.0347 19.9686C44.1344 17.8128 31.3842 15.7876 19.3531 13.6971C17.1954 13.3705 14.1876 12.3906 12.2914 14.4811C11.7683 15.069 11.2452 15.5263 10.7875 16.1142Z" fill="#CF9E41"/>
<path fill-rule="evenodd" clip-rule="evenodd" d="M15.8877 27.481C15.0376 27.873 6.92976 36.1695 5.22972 37.9334C4.70663 38.3907 3.79122 39.1746 4.11816 40.2851C4.44509 41.2651 5.49126 41.5917 6.40667 41.1344C7.38746 40.6771 15.0376 32.5765 17.0646 30.682C19.68 28.1343 17.2608 26.8277 15.8877 27.481Z" fill="#CF9E41"/>
<path fill-rule="evenodd" clip-rule="evenodd" d="M55.6424 67.0042C54.7924 67.3961 46.8153 75.6274 44.9845 77.4565C44.4614 77.9791 43.546 78.5671 43.7421 79.6123C43.8729 80.5269 44.7883 81.3108 45.8999 80.7882C46.4883 80.5922 54.8578 71.969 56.5578 70.3359C57.0809 69.8132 57.9309 69.2253 57.8001 68.1147C57.6694 67.2002 56.754 66.5469 55.6424 67.0042Z" fill="#CF9E41"/>
<path fill-rule="evenodd" clip-rule="evenodd" d="M21.3147 32.7071C20.5954 32.9684 20.5301 33.0991 20.0724 33.687C19.0916 34.7322 14.5145 38.8478 14.253 39.5664C13.5991 41.1343 14.8415 42.2449 16.1492 41.8529C16.8684 41.5916 23.0147 35.3855 23.2109 34.9935C23.9955 33.491 22.7532 32.1191 21.3147 32.7071Z" fill="#CF9E41"/>
<path fill-rule="evenodd" clip-rule="evenodd" d="M44.0037 70.8582C46.1614 70.9889 46.9461 69.3557 49.3654 67.0039C50.2808 66.0894 54.6616 62.431 51.3923 61.7124C50.0192 61.3858 49.2346 62.7577 48.5807 63.3456L43.9383 67.9838C42.696 69.1597 42.9575 69.617 44.0037 70.8582Z" fill="#CF9E41"/>
</svg>
