<svg width="107" height="101" viewBox="0 0 107 101" fill="none" xmlns="http://www.w3.org/2000/svg">
<path d="M2.84985 27.2948L53.506 52.639L104.162 27.2948L53.506 1.89954L2.84985 27.2948ZM53.506 54.5258C53.3534 54.5258 53.2517 54.4748 53.0991 54.4238L0.510305 28.0597C0.205147 27.9067 0.00170898 27.6007 0.00170898 27.2948C0.00170898 26.9378 0.205147 26.6318 0.510305 26.4788L53.0991 0.114737C53.3534 -0.0382458 53.6586 -0.0382458 53.9129 0.114737L106.502 26.4788C106.807 26.6318 106.959 26.9378 106.959 27.2948C106.959 27.6007 106.807 27.9067 106.502 28.0597L53.9129 54.4238C53.7603 54.4748 53.6077 54.5258 53.506 54.5258Z" fill="#CF9E41"/>
<path d="M2.84814 49.9883L53.5043 75.3835L104.16 49.9883L83.4097 39.6364L53.9112 54.4248C53.6569 54.5778 53.3517 54.5778 53.0974 54.4248L23.548 39.6364L2.84814 49.9883ZM53.5043 77.2703C53.3517 77.2703 53.25 77.2193 53.0974 77.1683L0.508596 50.8042C0.203438 50.6512 0 50.3453 0 49.9883C0 49.6823 0.203438 49.3764 0.508596 49.2234L23.1411 37.8516C23.3954 37.7496 23.7006 37.7496 23.9549 37.8516L53.5043 52.64L83.0537 37.8516C83.2571 37.7496 83.5623 37.7496 83.8166 37.8516L106.5 49.2234C106.805 49.3764 106.958 49.6823 106.958 49.9883C106.958 50.3453 106.805 50.6512 106.5 50.8042L53.9112 77.1683C53.7586 77.2193 53.606 77.2703 53.5043 77.2703Z" fill="#CF9E41"/>
<path d="M2.84814 72.7316L53.5043 98.1268L104.16 72.7316L83.4097 62.3798L53.9112 77.1681C53.6569 77.3211 53.3517 77.3211 53.0974 77.1681L23.548 62.3798L2.84814 72.7316ZM53.5043 100.014C53.3517 100.014 53.25 99.9626 53.0974 99.9116L0.508596 73.5475C0.203438 73.3946 0 73.0886 0 72.7316C0 72.4257 0.203438 72.1197 0.508596 71.9667L23.1411 60.595C23.3954 60.442 23.7006 60.442 23.9549 60.595L53.5043 75.3833L83.0537 60.595C83.2571 60.442 83.5623 60.442 83.8166 60.595L106.5 71.9667C106.805 72.1197 106.958 72.4257 106.958 72.7316C106.958 73.0886 106.805 73.3946 106.5 73.5475L53.9112 99.9116C53.7586 99.9626 53.606 100.014 53.5043 100.014Z" fill="#CF9E41"/>
<path d="M14.3932 34.5879C14.0881 34.5879 13.7829 34.4349 13.6303 34.1289C13.376 33.721 13.5795 33.16 13.9864 32.9561L64.5916 5.87804C64.9985 5.67406 65.5071 5.82705 65.7614 6.235C65.9648 6.69395 65.8123 7.2039 65.4054 7.45887L14.8001 34.4859C14.6984 34.5879 14.5458 34.5879 14.3932 34.5879Z" fill="#CF9E41"/>
<path d="M27.159 41.2173C26.803 41.2173 26.4978 41.0643 26.3452 40.7584C26.1418 40.3504 26.2944 39.7895 26.7521 39.5855L77.9169 12.9154C78.3237 12.6605 78.8832 12.8644 79.0866 13.2724C79.2901 13.7313 79.1375 14.2413 78.7306 14.4453L27.5659 41.1153C27.4133 41.2173 27.2607 41.2173 27.159 41.2173Z" fill="#CF9E41"/>
<path d="M40.0265 47.2345C39.7213 47.2345 39.4162 47.0305 39.2636 46.7245C39.0093 46.3166 39.2127 45.7556 39.6196 45.5517L91.649 19.4425C92.0558 19.1876 92.6153 19.3915 92.8187 19.7995C93.0222 20.2584 92.8696 20.7684 92.4119 21.0234L40.4334 47.1325C40.2808 47.1835 40.1791 47.2345 40.0265 47.2345Z" fill="#CF9E41"/>
</svg>
