<svg width="81" height="101" fill="none" xmlns="http://www.w3.org/2000/svg"><path d="M62.264 80.506H72.64c.59 0 1.012.519 1.012 1.124v10.636c0 .606-.422 1.124-1.012 1.124H62.264c-.591 0-1.097-.518-1.097-1.124V81.63c0-.605.506-1.124 1.096-1.124zM1.096 0H79.98c.59 0 1.012.519 1.012 1.124v98.838c0 .606-.422 1.038-1.012 1.038H1.096C.507 101 0 100.568 0 99.962V1.124C0 .52.506 0 1.097 0zm77.787 2.162H2.109v96.676h76.775V2.162zM8.521 8.128h64.035c.59 0 1.013.52 1.013 1.125v29.66c0 .605-.422 1.037-1.013 1.037H8.522c-.591 0-1.098-.432-1.098-1.037V9.253c0-.606.507-1.125 1.097-1.125zM71.46 10.29H9.534v27.498H71.46V10.29zM8.352 45.744H18.73c.59 0 1.012.519 1.012 1.124v10.636c0 .606-.422 1.124-1.012 1.124H8.352c-.59 0-1.096-.518-1.096-1.124V46.868c0-.605.506-1.124 1.096-1.124zm9.28 2.248H9.366v8.388h8.268v-8.388zm-9.7 14.874h10.377c.59 0 1.097.518 1.097 1.124v28.795c0 .605-.507 1.038-1.097 1.038H7.93c-.591 0-1.097-.433-1.097-1.038V63.99c0-.605.506-1.123 1.097-1.123zm9.28 2.161H9.027v26.634h8.184V65.027zm9.196-19.37h10.377c.591 0 1.097.433 1.097 1.038v10.637c0 .605-.506 1.123-1.097 1.123H26.407c-.59 0-1.097-.518-1.097-1.124V46.695c0-.605.507-1.038 1.097-1.038zm9.365 2.162h-8.268v8.475h8.268v-8.475zm-9.534 15.392h10.378c.59 0 1.096.52 1.096 1.125v10.636c0 .605-.506 1.124-1.096 1.124H26.238c-.59 0-1.096-.519-1.096-1.124V64.336c0-.606.506-1.124 1.096-1.124zm9.28 2.249h-8.183v8.388h8.184V65.46zM26.07 80.852h10.377c.59 0 1.012.519 1.012 1.124v10.636c0 .606-.422 1.038-1.012 1.038H26.07c-.59 0-1.097-.433-1.097-1.038V81.976c0-.605.506-1.124 1.097-1.124zm9.28 2.162h-8.268v8.474h8.268v-8.474zm9.196-37.53h10.377c.591 0 1.013.433 1.013 1.038V57.16c0 .605-.422 1.123-1.013 1.123H44.546c-.59 0-1.096-.518-1.096-1.124V46.522c0-.605.506-1.037 1.096-1.037zm9.28 2.162H45.56v8.475h8.268v-8.475zm-9.533 15.392H54.67c.591 0 1.097.52 1.097 1.125v10.636c0 .605-.506 1.124-1.097 1.124H44.293c-.59 0-1.012-.519-1.012-1.124V64.163c0-.606.422-1.124 1.012-1.124zm9.365 2.249H45.39v8.388h8.268v-8.388zm-9.534 15.392h10.378c.59 0 1.096.519 1.096 1.124V92.44c0 .606-.506 1.124-1.096 1.124H44.124c-.59 0-1.096-.519-1.096-1.124V81.803c0-.605.506-1.124 1.096-1.124zm9.28 2.162h-8.183v8.474h8.184v-8.474zm9.197-37.53h10.377c.59 0 1.097.433 1.097 1.038v10.723c0 .605-.506 1.038-1.097 1.038H62.601c-.59 0-1.097-.433-1.097-1.038V46.349c0-.605.506-1.037 1.097-1.037zm9.365 2.163h-8.268v8.474h8.268v-8.474zm-9.534 15.478H72.81c.591 0 1.097.432 1.097 1.038v10.636c0 .605-.506 1.124-1.097 1.124H62.432c-.59 0-1.097-.519-1.097-1.124V63.99c0-.606.507-1.038 1.097-1.038zm9.28 2.162H63.53v8.474h8.184v-8.474zm-.168 17.64h-8.268v8.388h8.268v-8.388z" fill="#CF9E41"/></svg>