<svg width="85" height="85" fill="none" xmlns="http://www.w3.org/2000/svg"><path fill-rule="evenodd" clip-rule="evenodd" d="M38.119 36.17c-2.027 2.482-7.389 7.839-8.37 9.015-.85 1.176-1.765 2.156-2.811 3.2-5.166 5.358-3.4 4.574-6.67 3.92-3.334-.653-6.538-1.24-9.938-1.96-3.4-.718-6.277-1.96-8.827.523-3.531 3.463-.066 4.704 2.484 6.468l10.724 6.924c1.046.654.457.327.85 2.156.196.915.588 1.503 1.046 1.96 1.7 1.764 3.138.653 4.054 1.764l6.93 10.713c1.635 2.418 3.008 6.141 6.343 2.81 2.812-2.875 1.635-4.835.785-8.885a504.212 504.212 0 0 1-1.896-9.668c-.72-3.724-1.243-2.352 3.792-6.86 1.896-1.633 11.116-10.648 12.227-11.367L65.32 74.647c.653 1.111 1.177 2.287 2.353 2.744 1.635.523 2.747-.065 3.597-.98 3.269-3.2 4.446-4.115 3.334-10.387-.588-2.809-1.046-5.553-1.569-8.492-1.046-5.684-1.896-11.106-2.811-16.79L68.13 27.94c.066-.85 1.7-2.091 2.289-2.679l9.742-10.191c1.7-2.221 6.996-10.648 3.858-13.98-3.204-3.397-11.9 2.09-13.927 3.724l-10.2 9.668c-3.008 3.005-1.635 2.744-6.8 1.83l-33.805-5.815c-5.427-.914-6.604-.784-10.462 2.94-1.439 1.502-2.158 3.462-.327 5.03l4.708 2.94c4.25 2.417 8.304 4.965 12.489 7.382 1.111.588 11.77 6.728 12.423 7.382zM10.788 16.114l26.742 15.94c6.474 3.79 6.604 2.613-1.046 10.648l-8.696 9.342c-.654.588-2.289 2.744-3.4 3.659-.916.849-1.439.457-2.616.13l-12.03-2.417c-1.505-.327-4.774-1.568-5.95-.261.13.784 7.584 5.16 8.303 5.683.981.654 6.081 3.528 6.408 4.508.392 1.306-.523 2.09.654 3.005.915.392 2.092-.196 2.942.392.654.457 8.697 13.784 9.677 14.568 1.439-1.241.393-3.463 0-5.357l-2.419-12.086c-.72-3.2-.654-2.613 1.439-4.573 1.111-1.045 2.55-2.613 3.661-3.397L47.47 43.813c2.485-2.417 3.008-.653 5.362 3.462 1.765 3.005 3.596 6.141 5.361 9.08 1.831 2.94 3.466 6.01 5.297 8.95.915 1.438 1.7 3.267 2.615 4.573.589.85.916 1.438 1.373 2.222l1.439 2.22c3.858-3.135 3.138-4.637 2.42-8.622C69.045 53.48 67.28 41.2 65.122 29.18c-.588-3.267-.13-2.744 1.439-4.443 2.812-3.135 6.408-6.336 8.892-9.276.981-1.176 2.093-1.96 2.943-3.332 1.307-1.96 3.661-5.88 3.334-8.819-3.792-.85-9.546 3.724-12.03 6.14l-3.204 3.071c-2.158 2.287-4.054 3.855-6.212 6.01-1.504 1.438-1.373 1.96-4.25 1.438-11.9-2.156-24.65-4.181-36.682-6.272-2.158-.326-5.165-1.306-7.062.784-.523.588-1.046 1.045-1.504 1.633z" fill="#CF9E41"/><path fill-rule="evenodd" clip-rule="evenodd" d="M15.888 27.481c-.85.392-8.958 8.688-10.658 10.452-.523.458-1.439 1.242-1.112 2.352.327.98 1.373 1.307 2.289.85.98-.458 8.63-8.558 10.658-10.453 2.615-2.548.196-3.854-1.177-3.201zm39.754 39.523c-.85.392-8.827 8.623-10.658 10.453-.523.522-1.438 1.11-1.242 2.155.13.915 1.046 1.699 2.158 1.176.588-.196 8.958-8.819 10.658-10.452.523-.523 1.373-1.11 1.242-2.221-.13-.915-1.046-1.568-2.158-1.11zM21.315 32.707c-.72.261-.785.392-1.243.98-.98 1.045-5.557 5.16-5.819 5.88-.654 1.567.588 2.678 1.896 2.286.72-.261 6.866-6.468 7.062-6.86.785-1.502-.458-2.874-1.896-2.286zm22.689 38.151c2.157.13 2.942-1.502 5.361-3.854.916-.915 5.297-4.573 2.027-5.292-1.373-.326-2.157 1.046-2.811 1.634l-4.643 4.638c-1.242 1.176-.98 1.633.066 2.874z" fill="#CF9E41"/></svg>