<svg width="107" height="101" fill="none" xmlns="http://www.w3.org/2000/svg"><path d="M2.85 27.295l50.656 25.344 50.656-25.344L53.506 1.9 2.85 27.295zm50.656 27.23c-.153 0-.254-.05-.407-.101L.51 28.06c-.305-.153-.508-.46-.508-.765 0-.357.203-.663.508-.816L53.1.115a.779.779 0 0 1 .813 0l52.589 26.364c.305.153.457.459.457.816a.841.841 0 0 1-.457.765l-52.59 26.364c-.152.05-.304.102-.406.102z" fill="#CF9E41"/><path d="M2.848 49.988l50.656 25.395 50.656-25.395-20.75-10.352-29.5 14.789a.779.779 0 0 1-.814 0L23.548 39.636l-20.7 10.352zM53.504 77.27c-.152 0-.254-.05-.407-.102L.51 50.804a.909.909 0 0 1-.51-.816c0-.306.203-.612.509-.765L23.14 37.852a1.12 1.12 0 0 1 .814 0l29.55 14.788 29.549-14.788c.203-.102.508-.102.763 0L106.5 49.223a.842.842 0 0 1 .458.765c0 .357-.153.663-.458.816L53.911 77.168c-.152.051-.305.102-.407.102z" fill="#CF9E41"/><path d="M2.848 72.732l50.656 25.395 50.656-25.395L83.41 62.38l-29.5 14.788a.779.779 0 0 1-.814 0L23.548 62.38l-20.7 10.352zm50.656 27.282c-.152 0-.254-.051-.407-.102L.51 73.547a.908.908 0 0 1-.51-.814c0-.306.203-.612.509-.765L23.14 60.595a.779.779 0 0 1 .814 0l29.55 14.788 29.549-14.788c.203-.153.508-.153.763 0L106.5 71.967a.842.842 0 0 1 .458.765c0 .357-.153.663-.458.816L53.911 99.912c-.152.05-.305.102-.407.102zM14.393 34.588a.839.839 0 0 1-.763-.46c-.254-.407-.05-.968.356-1.172L64.592 5.878c.407-.204.915-.051 1.17.357a.963.963 0 0 1-.357 1.224L14.8 34.486c-.102.102-.254.102-.407.102zm12.766 6.629c-.356 0-.661-.153-.814-.459-.203-.408-.05-.969.407-1.172l51.165-26.67c.407-.255.966-.052 1.17.356.203.46.05.97-.356 1.173l-51.165 26.67c-.153.102-.305.102-.407.102zm12.867 6.017c-.305 0-.61-.203-.762-.51-.255-.407-.051-.968.356-1.172l52.029-26.11c.407-.254.966-.05 1.17.357a.931.931 0 0 1-.407 1.224l-51.979 26.11c-.152.05-.254.101-.407.101z" fill="#CF9E41"/></svg>