<svg width="107" height="93" fill="none" xmlns="http://www.w3.org/2000/svg"><path d="M105.878 78.45H91.073c-.598 0-1.047-.459-1.047-1.07 0-.457.449-.915 1.047-.915h13.908V2.137H17.048v13.278c0 .61-.448 1.069-1.047 1.069-.598 0-1.047-.458-1.047-1.069V1.068c0-.61.45-1.068 1.047-1.068h89.877c.598 0 1.047.458 1.047 1.068v76.313c0 .61-.449 1.068-1.047 1.068z" fill="#CF9E41"/><path d="M2.094 90.811h87.932V16.483H2.094v74.328zm88.979 2.137H1.047C.449 92.948 0 92.49 0 91.88V15.415c0-.458.449-1.068 1.047-1.068h90.026c.598 0 1.047.61 1.047 1.068V91.88c0 .61-.449 1.068-1.047 1.068z" fill="#CF9E41"/><path d="M91.073 66.544c-.3 0-.449-.152-.598-.152L69.09 50.214 52.64 63.95c-.449.305-1.047.305-1.496-.153-.299-.458-.299-1.068.15-1.526l17.198-14.347c.299-.305.897-.305 1.196 0L91.671 64.56c.449.458.598 1.069.15 1.526a.82.82 0 0 1-.748.458z" fill="#CF9E41"/><path d="M1.047 78.754a.82.82 0 0 1-.748-.458C-.15 77.838 0 77.228.45 76.77l33.498-28.388c.448-.305 1.047-.305 1.346 0l29.16 23.352c.45.305.45 1.068.15 1.526-.448.458-1.046.458-1.495.152L34.695 50.52 1.645 78.45c-.15.153-.3.305-.598.305zM55.78 30.983c-3.14 0-5.682 2.594-5.682 5.8 0 3.204 2.542 5.8 5.682 5.8 3.14 0 5.683-2.596 5.683-5.8 0-3.206-2.542-5.8-5.683-5.8zm0 13.736c-4.337 0-7.776-3.51-7.776-7.937 0-4.426 3.44-7.936 7.776-7.936 4.337 0 7.777 3.51 7.777 7.936 0 4.427-3.44 7.937-7.777 7.937z" fill="#CF9E41"/></svg>