<svg width="84" height="101" fill="none" xmlns="http://www.w3.org/2000/svg"><path d="M1.581 89.856h49.186c-.703-1.945-1.23-4.068-1.23-6.19 0-9.552 7.729-17.335 17.215-17.335 1.932 0 3.689.354 5.445.884V25.471L48.658 1.591H1.581v88.265zm50.415 1.77H.878c-.527 0-.878-.355-.878-.885V.884C0 .354.351 0 .878 0H49.01c.175 0 .351 0 .527.177l24.066 24.41c.175.177.35.354.35.53v43.337c0 .353-.175.53-.35.707-.352.177-.527.177-.879 0-1.756-.707-3.864-1.238-5.972-1.238-8.608 0-15.458 7.075-15.458 15.742 0 2.3.526 4.423 1.405 6.545.175.177.175.354.175.53 0 .531-.35.885-.878.885z" fill="#CF9E41"/><path d="M50.414 24.94h21.255L50.414 3.538V24.94zm23.363 1.592H49.535c-.35 0-.702-.353-.702-.707V1.415c0-.354.175-.53.351-.707.352-.177.703 0 1.054.176l23.89 24.233c.352.177.352.354.352.708s-.352.707-.703.707zM37.24 12.382H11.943c-.352 0-.879-.354-.879-.885 0-.53.527-.884.879-.884h25.295c.352 0 .703.354.703.884 0 .531-.352.885-.703.885zm7.026 10.612H11.944c-.352 0-.879-.353-.879-.707 0-.53.527-.884.879-.884h32.322c.527 0 .878.353.878.884 0 .354-.351.707-.878.707zm14.931 33.608H11.944c-.352 0-.879-.353-.879-.707 0-.53.527-.885.879-.885h47.253c.527 0 .878.354.878.885 0 .354-.351.707-.878.707zm0-10.259H11.944c-.352 0-.879-.354-.879-.884 0-.354.527-.708.879-.708h47.253c.527 0 .878.354.878.708 0 .53-.351.884-.878.884zm0-10.79H11.944c-.352 0-.879-.353-.879-.707 0-.53.527-.885.879-.885h47.253c.527 0 .878.354.878.885 0 .354-.351.707-.878.707zm7.553 32.37c-8.607 0-15.458 7.075-15.458 15.743 0 8.667 6.851 15.565 15.458 15.565 8.608 0 15.634-6.898 15.634-15.565 0-8.668-7.026-15.743-15.634-15.743zm0 33.077c-9.485 0-17.215-7.783-17.215-17.334 0-9.552 7.73-17.335 17.215-17.335 9.486 0 17.215 7.783 17.215 17.335 0 9.551-7.729 17.334-17.215 17.334z" fill="#CF9E41"/><path d="M65.17 86.496s-.176 0-.352-.177l-5.27-2.477c-.351-.177-.527-.707-.351-1.06.176-.532.703-.708 1.054-.355l4.919 2.3 8.08-3.715c.527-.177 1.054 0 1.23.354.175.354 0 .884-.527 1.061L65.52 86.32c0 .177-.176.177-.352.177z" fill="#CF9E41"/></svg>