<svg width="86" height="90" fill="none" xmlns="http://www.w3.org/2000/svg"><path d="M1.902 61.29h7.293V50c0-.484.476-.968.951-.968.634 0 .951.484.951.968v11.29h29.487V50c0-.484.317-.968.952-.968.475 0 .95.484.95.968v11.29h7.293v-3.87c0-6.775-2.695-13.227-7.61-17.743H9.513c-4.915 4.517-7.61 10.968-7.61 17.742v3.871zm-.158 20H57.23c.476 0 .952.484.952.968v5.323l23.145-12.258-23.145-12.097v5.322c0 .484-.476.968-.952.968H1.744V81.29zm54.535 1.774H.951c-.475 0-.951-.322-.951-.806v-13.71c0-.484.476-.967.951-.967H56.28v-5.807c0-.161.159-.322.159-.484.158-.484.792-.645 1.11-.322l25.999 13.548.475.484c.159.484 0 .968-.475 1.129l-25.841 13.71c-.159.161-.317.161-.476.161-.475 0-.95-.484-.95-.968v-5.968zM25.841 8.548c-6.183 0-11.097 5.162-11.097 11.452s4.914 11.29 11.097 11.29 11.097-5 11.097-11.29c0-6.29-4.914-11.452-11.097-11.452zm0 24.678c-7.134 0-13-5.968-13-13.226 0-7.258 5.866-13.226 13-13.226s13 5.968 13 13.226c0 7.258-5.866 13.226-13 13.226zm25.682 21.451h23.304V43.226c0-.484.476-.807.952-.807.475 0 .95.323.95.807v11.451h7.452v-4.032c0-6.613-2.854-13.064-7.768-17.742h-32.5c-1.585 1.452-2.853 3.065-3.963 4.839h2.537c.317 0 .475 0 .634.161 4.597 4.355 7.61 10.162 8.402 16.452v.322zM37.731 37.742c1.427-2.42 3.012-4.677 5.073-6.452.158-.161.475-.322.634-.322h33.45c.159 0 .317.161.634.322 5.39 5 8.403 12.097 8.403 19.355v5c0 .484-.317.968-.951.968H51.682v5.646c0 .644-.476.967-.952.967H.951c-.475 0-.951-.323-.951-.968V57.42C0 50 3.17 42.903 8.56 37.903c.16-.161.318-.161.635-.161H37.73zM60.084 1.935c-6.024 0-11.097 5-11.097 11.29 0 6.291 5.073 11.452 11.097 11.452 6.183 0 11.256-5.16 11.256-11.451 0-6.29-5.073-11.29-11.256-11.29zm0 24.678c-7.134 0-13-5.968-13-13.387C47.084 5.968 52.95 0 60.084 0c7.292 0 13.158 5.968 13.158 13.226 0 7.42-5.866 13.387-13.158 13.387z" fill="#CF9E41"/></svg>