<svg width="133" height="97" fill="none" xmlns="http://www.w3.org/2000/svg"><path d="M1.92 82.036h49.108V78a25.1 25.1 0 0 0-7.818-18.182H9.784A24.963 24.963 0 0 0 1.92 78.001v4.035zm50.09 1.946H.984c-.562 0-.983-.427-.983-.997v-4.984c0-7.548 3.183-14.811 8.754-19.89a.918.918 0 0 1 .656-.286h34.174a.75.75 0 0 1 .609.285c5.57 5.08 8.754 12.343 8.754 19.89v4.985c0 .57-.421.997-.936.997zM26.497 28.107c-6.32 0-11.47 5.222-11.47 11.631s5.15 11.583 11.47 11.583c6.273 0 11.423-5.174 11.423-11.583s-5.15-11.63-11.423-11.63zm0 25.16c-7.397 0-13.389-6.076-13.389-13.529 0-7.5 5.992-13.577 13.389-13.577 7.35 0 13.342 6.076 13.342 13.577 0 7.453-5.992 13.53-13.342 13.53z" fill="#CF9E41"/><path d="M42.508 83.982H10.44c-.515 0-.937-.427-.937-.997v-12.58c0-.522.422-.95.937-.95.561 0 .983.428.983.95v11.63h30.102v-11.63c0-.522.468-.95.983-.95.514 0 .936.428.936.95v12.58c0 .57-.422.997-.936.997z" fill="#CF9E41"/><path fill-rule="evenodd" clip-rule="evenodd" d="M84.313 50.04c-.562-.237-.75-.095-1.966-.665-1.732-.807-3.37-2.231-4.354-3.892-.75-1.235-1.217-.57-4.166-1.33a15.175 15.175 0 0 1-3.98-1.519c-1.825-.95-2.809-2.184-3.651-1.661-.422.285-.75 1.044.234 1.756 5.29 3.845 9.503 3.608 9.924 3.845.328.285.562.76.843 1.092 2.2 2.801 5.477 4.51 9.316 4.558 1.03 0 3.043.19 3.465-.428a.915.915 0 0 0-.235-1.329c-.42-.285-1.17-.19-1.685-.332-1.779-.475-3.464-2.184-3.37-4.51.842-.617 5.009-1.33 9.222-6.551 8.38-10.35 4.447-26.063-7.303-31.38C79.49 4.42 71.627 5.465 65.54 10.4c-6.647 5.365-9.175 14.907-6.132 23.024.28.713.89 2.28 1.264 2.754.561.712 2.247.285 1.404-1.377-1.545-3.133-2.247-6.219-2.013-9.969.515-8.308 6.788-15.239 14.934-16.805 8.52-1.567 17.087 3.37 20.083 11.06 1.686 4.32 1.966 8.926.328 13.436a18.318 18.318 0 0 1-6.882 8.972c-2.809 1.946-4.634 2.136-5.29 2.563-.749.428-.468 2.421-.234 3.37.14.523.375.998.562 1.425.234.332.655.902.749 1.187z" fill="#CF9E41"/><path fill-rule="evenodd" clip-rule="evenodd" d="M44.989 6.65c-.796 0-.89-.237-.937-1.044.14-.095.515-.285.562-.475l-.374-.285-.422.285c-.187.19-.327.285-.468.475-.89.807-1.732 1.804-2.434 2.8a18.862 18.862 0 0 0-2.481 4.51c-2.856 7.786-1.311 15.239 3.932 21.315 1.545 1.804 3.745 3.418 5.992 4.51l2.154.902c.187.095.14 0 .234.238-.047 2.61-1.966 4.414-4.447 4.557-1.311.095-1.686 1.946.374 1.946 1.498 0 2.903.048 4.354-.19 2.762-.474 5.617-2.278 7.022-4.177 1.358-1.804.515-1.092 2.95-1.567 2.387-.474 4.4-1.282 6.46-2.516.421-.237 1.03-.522 1.076-1.186 0-.618-.515-1.092-1.17-.95-.28.047-1.077.617-1.451.807-2.154 1.14-4.167 1.899-6.742 2.184-1.872.19-1.03.095-2.528 1.994-1.732 2.183-3.323 2.706-5.57 3.418.093-.475.749-.855 1.264-2.327.187-.712.514-2.706.14-3.37-.234-.427-1.873-.855-2.481-1.092-4.307-1.899-7.163-4.89-9.316-9.067-1.686-3.37-2.247-8.26-1.217-12.438 1.03-4.082 3.23-7.216 5.524-9.257z" fill="#CF9E41"/><path fill-rule="evenodd" clip-rule="evenodd" d="M52.807 24.215c.468.285 1.17 1.566 2.06.807 1.03-.855-.328-1.757-.656-2.184.187-.665 1.358-1.946.937-4.415-.843-4.747-6.601-6.361-9.738-3.085-3.277 3.37-1.404 9.02 3.09 9.826.796.143 1.592.095 2.387-.095.937-.237 1.218-.57 1.92-.854zm-1.452-1.377c-.28-.854-2.621-1.946-1.591-3.086.983-1.139 2.387 1.282 3.043 1.614 2.247-3.845-2.856-7.88-6.04-4.747-1.966 2.041-1.263 5.697 1.64 6.551 1.31.38 2.012 0 2.949-.332zm31.554 6.267l4.12.047c.186.475.842 2.516 1.263 2.753.328.19.796.19 1.077-.047.655-.57.234-1.33-.047-1.994l-2.34-5.981c-.282-.665-.516-1.282-.796-1.947-.235-.664-.375-1.519-1.218-1.519-.796 0-.983.855-1.217 1.424-.28.665-.515 1.282-.796 1.947l-2.387 5.886c-.234.57-.75 1.52-.14 2.041.748.665 1.357 0 1.638-.617.14-.38.234-.664.374-.997.047-.142.14-.332.188-.522l.28-.474zm.748-1.947l2.575.048-1.264-3.181c-.234.285-1.17 2.658-1.31 3.133zM44.661 4.514c.094.332 0 .095.28.427.094.143.141.19.235.332-.094-.617.094-.854.843-.901l-.047.949c.374-.095-.187.095.093-.048l.235-.094c.046 0 .093 0 .093-.048-.093.38 0 .237-.187.427.187-.047 0 .048.234-.095l.094-.095c.093-.095.046-.095.093-.142-.14-.237-1.077-1.187-.187-1.614.328-.142.375-.095.702 0-.047-1.472 1.592-1.044 1.264-.048-.047.285-.234.428-.468.475-.28.048-.421-.047-.421-.047-.469-.143-.14-.095-.14-.143.046.38.186.428-.048.76-.327.38-.327-.048-.42.475.608-.285 1.263-.855 2.527-1.425.936-.427 1.92-.807 2.95-1.091a19.022 19.022 0 0 1 7.35-.475c5.43.807 7.958 3.418 8.566 3.655.843.332 2.154-.807.562-1.946-6.507-4.557-14.793-5.175-21.91-.997l-2.293 1.709zm29.165 5.696c-1.544.523-.187 1.852.703 4.605 1.545 4.605.983 9.874-1.17 14.1-.235.427-.422.759-.188 1.234.14.38.609.664 1.124.474.796-.237 1.919-3.465 2.2-4.51 1.077-3.797 1.077-8.022-.094-11.82-.28-.807-.561-1.661-.936-2.421-.328-.665-.75-1.946-1.639-1.662z" fill="#CF9E41"/><path fill-rule="evenodd" clip-rule="evenodd" d="M44.661 4.514c-.234.095-.047-.047-.234.095-.234.19-.047.048-.187.237l.374.285c-.047.19-.421.38-.562.475.047.807.14 1.044.937 1.044.28-.237 1.077-.807 1.217-1.092.187-.19.094-.047.187-.427 0 .048-.047.048-.093.048l-.234.095c-.281.142.28-.048-.094.047l.047-.95c-.75.048-.937.286-.843.903-.094-.143-.14-.19-.234-.333-.281-.332-.187-.095-.281-.427zm26.684 27.913c-.468.238-.842.617-.608 1.282.14.38.702.76 1.31.522 1.124-.522.515-2.42-.702-1.804zM46.627 5.225c.188-.048.14 0 .281-.143.094-.522.094-.095.422-.474.233-.333.093-.38.046-.76 0 .048-.327 0 .14.143 0 0 .141.095.422.047.234-.047.421-.19.468-.474.328-.997-1.31-1.424-1.264.047-.328-.095-.374-.142-.702 0-.89.427.047 1.376.187 1.614z" fill="#CF9E41"/><path d="M81.925 95.043h49.109v-3.987c0-6.884-2.856-13.483-7.818-18.23H89.79c-5.009 4.747-7.865 11.346-7.865 18.23v3.987zm50.092 1.947H80.989c-.562 0-.983-.427-.983-.95v-4.984a27.16 27.16 0 0 1 8.754-19.939 1.11 1.11 0 0 1 .656-.237h34.174c.234 0 .468.095.656.237C129.77 76.244 133 83.507 133 91.056v4.984c0 .522-.468.95-.983.95zm-25.514-55.827c-6.32 0-11.47 5.222-11.47 11.63 0 6.361 5.15 11.583 11.47 11.583s11.423-5.222 11.423-11.583c0-6.408-5.103-11.63-11.423-11.63zm0 25.16c-7.397 0-13.389-6.077-13.389-13.53 0-7.5 5.992-13.576 13.389-13.576 7.35 0 13.389 6.076 13.389 13.576 0 7.453-6.039 13.53-13.389 13.53z" fill="#CF9E41"/><path d="M122.514 96.99H90.492c-.561 0-.983-.428-.983-.95V83.46c0-.57.422-.997.983-.997.515 0 .937.428.937.997v11.583h30.148V83.46c0-.57.422-.997.937-.997.515 0 .983.428.983.997v12.58c0 .522-.468.95-.983.95z" fill="#CF9E41"/></svg>