<svg width="88" height="93" fill="none" xmlns="http://www.w3.org/2000/svg"><path d="M1.934 61.524h7.55v-11.42c0-.461.369-.922.921-.922.553 0 .921.461.921.921v10.684l27.44-11.328c.184-.092.46-.092.553 0l11.326 5.526a24.652 24.652 0 0 0-7.643-15.289H9.761C4.788 44.393 1.934 50.84 1.934 57.564v3.96zm10.129 1.934H.92c-.46 0-.921-.46-.921-.92v-4.974c0-7.368 3.13-14.46 8.748-19.526.092-.184.368-.184.644-.184H38.49a27.326 27.326 0 0 1 5.249-6.54.836.836 0 0 1 .644-.276h33.978a1 1 0 0 1 .645.277c5.525 5.065 8.656 12.157 8.656 19.525v4.974c0 .46-.369.92-.921.92H54.236l30.479 14.83c.368.184.46.644.368.92-.092.184-.276.277-.46.369l-3.315 1.381 3.591 1.75c.276.092.46.553.276.83a.72.72 0 0 1-.368.368l-2.947 1.197 3.04 1.473c.367.185.46.645.275.921a.72.72 0 0 1-.368.369L56.17 92.93a.587.587 0 0 1-.553 0L39.78 85.194c-.092 0-.092 0-.184-.092l-14.55-7.092c-.092 0-.184-.092-.184-.092l-14.641-7.184c-.276-.092-.46-.552-.276-.829.092-.184.276-.276.368-.368l3.039-1.197 1.197.552-4.328-2.118c-.276-.092-.46-.553-.276-.829a.72.72 0 0 1 .368-.368l3.315-1.382-1.565-.737zm3.223 1.566l-3.131 1.29 13.26 6.447 3.038-1.29-3.591-1.75c-.092 0-.092-.092-.184-.092l-9.393-4.605zm14.548 7.092l.184.184-3.038 1.197 12.983 6.355 3.039-1.289-3.315-1.658c-.092 0-.184 0-.276-.092l-9.577-4.697zM44.66 79.3l-3.131 1.29 14.456 6.999 26.98-11.144-3.315-1.566-23.572 9.763a.587.587 0 0 1-.553 0L44.66 79.3zm23.757-14.184L41.436 76.26l14.364 7 26.98-11.144-14.365-7zM25.23 68.432l27.072-11.145-13.26-6.447-26.98 11.052 13.168 6.54zm41.529-4.053l-12.983-6.355L26.887 69.17l12.891 6.355 26.98-11.145zm-51.842 4.697l-2.762 1.106 13.26 6.539 2.67-1.105 1.657.737-2.762 1.105 12.983 6.355 2.763-1.198-2.947-1.381c-.092 0-.184 0-.184-.092L25.046 74.05c-.092 0-.184-.092-.276-.092l-9.853-4.882zm29.374 14.368L41.53 84.55l14.456 7 26.98-11.145-2.762-1.29-24.033 9.856a.587.587 0 0 1-.553 0l-11.326-5.527zM26.335 8.658c-6.261 0-11.326 5.065-11.326 11.42a11.32 11.32 0 0 0 11.326 11.329c6.262 0 11.418-5.066 11.418-11.329 0-6.355-5.156-11.42-11.418-11.42zm0 24.683c-7.274 0-13.26-5.987-13.26-13.263 0-7.368 5.986-13.355 13.26-13.355 7.367 0 13.352 5.987 13.352 13.355 0 7.276-5.985 13.263-13.352 13.263zM52.578 54.8h23.757V43.38c0-.46.46-.921.921-.921.553 0 1.013.46 1.013.921V54.8h7.55v-3.96c0-6.723-2.854-13.17-7.826-17.868H44.752c-1.566 1.474-2.947 3.04-4.052 4.882h2.67c.184 0 .46 0 .645.184 4.696 4.329 7.735 10.224 8.471 16.486l.093.277zm8.748-52.867C55.065 1.934 50 7 50 13.354a11.32 11.32 0 0 0 11.326 11.33c6.262 0 11.418-5.066 11.418-11.33 0-6.354-5.156-11.42-11.418-11.42zm0 24.683c-7.274 0-13.26-5.986-13.26-13.262C48.066 5.987 54.052 0 61.326 0c7.367 0 13.352 5.987 13.352 13.355 0 7.276-5.985 13.262-13.352 13.262z" fill="#CF9E41"/></svg>