<svg xmlns="http://www.w3.org/2000/svg" viewBox="0 0 49 49"><path d="M24.5 29c-6.617 0-12 5.383-12 12a1 1 0 0 0 2 0c0-5.514 4.486-10 10-10s10 4.486 10 10a1 1 0 0 0 2 0c0-6.617-5.383-12-12-12zm-9-9c1.654 0 3 1.346 3 3a1 1 0 0 0 2 0c0-2.757-2.243-5-5-5s-5 2.243-5 5a1 1 0 0 0 2 0c0-1.654 1.346-3 3-3zm18-2c-2.757 0-5 2.243-5 5a1 1 0 0 0 2 0c0-1.654 1.346-3 3-3s3 1.346 3 3a1 1 0 0 0 2 0c0-2.757-2.243-5-5-5z"/><path d="M24.5 5c-1.711 0-3.435.221-5.14.634C18.349 2.775 16.695 0 14.5 0c-3.806 0-6 8.348-6 11 0 .292.028.577.068.857C4.661 15.964 2.5 21.311 2.5 27c0 12.131 9.869 22 22 22s22-9.869 22-22-9.869-22-22-22zm-10-3c1.101 0 2.432 2.538 3.247 5.104.002.007 0 .015.002.023.463 1.485.751 2.969.751 3.873 0 2.206-1.794 4-4 4-.256 0-.505-.029-.748-.076-.082-.016-.159-.042-.239-.062a3.973 3.973 0 0 1-.461-.143 3.991 3.991 0 0 1-.266-.12 3.905 3.905 0 0 1-.922-.615c-.092-.082-.185-.162-.269-.252-.059-.063-.11-.133-.165-.2a4.037 4.037 0 0 1-.809-1.612c-.004-.018-.014-.033-.019-.05A3.96 3.96 0 0 1 10.5 11c0-2.825 2.282-9 4-9zm10 45c-11.028 0-20-8.972-20-20 0-4.824 1.696-9.387 4.807-13.008.129.223.273.437.429.641l.014.019c.301.391.647.743 1.033 1.05.049.039.1.075.15.112a6.941 6.941 0 0 0 .615.404c.195.111.395.214.603.303.02.009.041.016.061.024.201.083.408.153.618.214.071.021.143.037.215.055.167.042.337.076.51.104.072.011.143.024.215.033.24.029.483.049.73.049a6.006 6.006 0 0 0 5.969-6.607c-.015-.192-.04-.397-.069-.608l-.003-.027a18.684 18.684 0 0 0-.449-2.221A19.811 19.811 0 0 1 24.5 7c11.028 0 20 8.972 20 20s-8.972 20-20 20z"/></svg>